<svg xmlns="http://www.w3.org/2000/svg" xmlns:xlink="http://www.w3.org/1999/xlink" version="1.1" id="Layer_1" x="0px" y="0px" viewBox="0 314.2 1024.2 138.8" enable-background="new 0 314.2 1024.2 138.8" xml:space="preserve"><path fill="#8FC84C" d="M92.5 380c-17.1 2.5-33.1 3.6-45.5 3.3v9.8c0 1.5 0.7 2.9 2.2 3.6l40.4 22.6c1.5 0.7 2.9 0.7 4 0l40.4-22.6c1.5-0.7 2.2-2.2 2.2-3.6v-22.6C124.9 374.2 109.6 377.4 92.5 380z"/><path opacity="0.2" enable-background="new    " d="M136.5 383.3v-12.7c-11.6 3.6-26.9 6.9-44 9.5 -17.1 2.5-33.1 3.6-45.5 3.3v9.8c0 1.1 0.4 1.8 1.1 2.5 13.5-0.4 29.1-1.8 45.5-4C109.2 389.5 123.8 386.5 136.5 383.3z"/><path fill="#FFFFFF" d="M181.6 355.6c-1.5-10.2-43.3-12.7-93.6-5.5C37.9 357.4-1.5 371.6 0 381.8c1.5 10.2 43.3 12.7 93.6 5.5C143.8 380 183.1 366.2 181.6 355.6zM92.5 380c-37.1 5.1-68.1 4-68.8-2.9 -1.1-6.9 28.4-16.4 65.5-21.8s68.1-4 68.8 2.5C158.7 364.7 129.6 374.5 92.5 380z"/><path opacity="0.2" enable-background="new    " d="M41.9 387.6c-11.6 0-21.1-0.7-28-2.2 -7.3-1.5-9.5-3.6-9.5-4.7 0 0-0.4-5.5 22.2-13.5 5.8-2.2 12.7-4 20-6.2 -1.8 0.4-3.3 1.1-5.1 1.5 -18.9 6.2-23.3 11.6-22.6 14.9 1.1 7.3 20 8 32 8s26.6-1.1 41.5-3.3c17.8-2.5 34.2-6.2 46.6-10.2 18.9-6.2 22.6-11.6 22.2-14.6 -1.1-7.3-18.6-8-30.6-8 2.9 0 5.8 0 8.7 0 11.6 0 21.1 0.7 28 2.2 7.3 1.5 9.5 3.6 9.5 4.7 0 0 0.4 5.5-22.2 13.5 -16 5.8-38.2 10.9-61.5 14.2C74.6 386.2 57.2 387.6 41.9 387.6L41.9 387.6z"/><path fill="#8FC84C" d="M92.5 372c17.1-2.5 32.4-5.8 44-9.5v-14.2c0-1.5-0.7-2.9-2.2-3.6l-40.4-22.6c-1.5-0.7-2.9-0.7-4 0l-40.8 22.6c-1.5 0.7-2.2 2.2-2.2 3.6v26.9C59.3 375.3 75 374.2 92.5 372z"/></svg>